<svg xmlns="http://www.w3.org/2000/svg" viewBox="0 0 72 72">
<style type="text/css">
	.st0{opacity:0.8;fill:#29CCA1;stroke:#29CC29;stroke-width:3;stroke-miterlimit:10;}
	.st1{fill:#29CC29;}
	.st2{fill:#29CCA1;}
	.st3{fill:none;stroke:#29CC29;stroke-width:3;stroke-linecap:round;stroke-linejoin:round;}
	.st4{fill:none;stroke:#29CCA1;stroke-width:3;stroke-linecap:round;stroke-linejoin:round;}
	.st5{fill:none;stroke:#29CCA1;stroke-width:3;stroke-linecap:round;stroke-miterlimit:10;}
	.st6{fill:none;stroke:#29CC29;stroke-width:3;stroke-linecap:round;stroke-miterlimit:10;}
</style>
<path class="st0" d="M58.5,67.5h-45c-4.9,0-9-4-9-9v-45c0-4.9,4.1-9,9-9h45c5,0,9,4.1,9,9v45C67.5,63.5,63.5,67.5,58.5,67.5z"/>

<path class="st1" d="M63,9c-2.5,0-4.5,8-4.5,18c0,5-4,9-9,9s-9-4-9-9C40.5,17,50.6,9,63,9z"/>
<path class="st2" d="M40.5,27c0,5,4,9,9,9l-27,27c-5,0-9-4-9-9L40.5,27z"/>
<line class="st3" x1="49.5" y1="36" x2="22.5" y2="63"/>
<line class="st3" x1="40.5" y1="27" x2="13.5" y2="54"/>
<path class="st3" d="M13.5,54c0,5,4,9,9,9"/>
<path class="st4" d="M58.5,27c0,5-4,9-9,9"/>
<path class="st4" d="M40.5,27c0,5,4,9,9,9"/>
<path class="st4" d="M40.5,27C40.5,17,50.6,9,63,9"/>
<path class="st4" d="M58.5,27c0-10,2-18,4.5-18"/>

<path class="st2" d="M9,10c2.5,0,4.5,8,4.5,18c0,5,4,9,9,9s9-4,9-9C31.5,18,21.4,10,9,10z"/>
<path class="st1" d="M22.5,37l27,27c5,0,9-4,9-9l-27-27C31.5,33,27.5,37,22.5,37z"/>
<line class="st5" x1="22.5" y1="37" x2="49.5" y2="64"/>
<line class="st5" x1="31.5" y1="28" x2="58.5" y2="55"/>
<path class="st5" d="M58.5,55c0,5-4,9-9,9"/>
<path class="st6" d="M13.5,28c0,5,4,9,9,9"/>
<path class="st6" d="M31.5,28c0,5-4,9-9,9"/>
<path class="st6" d="M31.5,28c0-10-10.1-18-22.5-18"/>
<path class="st6" d="M13.5,28c0-10-2-18-4.5-18"/>
</svg>
