<svg xmlns="http://www.w3.org/2000/svg" viewBox="0 0 64 64">
<style type="text/css">
.st0{fill:#fff;}
.st1{fill:#66c;}
.st2{fill:#393;}
.st3{fill:#6c6;}
.st4{fill:#339;}
.st5{fill:#933;}
.st6{fill:#c66;}
</style>
<polygon class="st0" points="32,9.2 50.5,41.2 13.5,41.2 "/>
<polygon class="st1" points="64,27.7 45.5,59.7 32,51.9 50.5,41.2 50.5,19.9 "/>
<polygon class="st2" points="50.5,19.9 50.5,41.2 32,9.2 "/>
<polygon class="st3" points="50.5,4.3 50.5,19.9 32,9.2 13.5,19.9 13.5,4.3 "/>
<polygon class="st4" points="50.5,41.2 32,51.9 13.5,41.2 "/>
<polygon class="st5" points="32,9.2 13.5,41.2 13.5,19.9 "/>
<polygon class="st6" points="13.5,41.2 32,51.9 18.5,59.7 0,27.7 13.5,19.9 "/>
<g style="enable-background:new;">
	<path class="st0" d="M15.4,48.5l-1.5-0.2l0.7-1.3l0.8,0.8c0.1,0.1,0.3,0.1,0.5,0.1c0.2,0,0.4-0.1,0.6-0.2c0.2-0.1,0.3-0.3,0.3-0.5
		c0-0.1,0-0.2-0.1-0.3s-0.1-0.2-0.2-0.2L15,45.9c-0.4-0.2-0.6-0.4-0.8-0.7S14,44.7,14,44.5c0-0.4,0.2-0.7,0.5-1
		c0.3-0.3,0.8-0.4,1.4-0.4c0.1,0,0.2,0,0.3,0c0.1,0,0.2,0,0.3,0l1.4,0.2l-0.8,1.2l-0.7-0.7c-0.2-0.1-0.3-0.1-0.4-0.1
		c-0.2,0-0.4,0.1-0.5,0.2c-0.1,0.1-0.2,0.2-0.2,0.3s0,0.2,0.1,0.3c0.1,0.1,0.2,0.2,0.4,0.3l1.4,0.8c0.2,0.1,0.4,0.3,0.6,0.5
		c0.2,0.2,0.2,0.5,0.2,0.8c0,0.5-0.2,0.9-0.5,1.2c-0.3,0.3-0.9,0.5-1.6,0.5c-0.1,0-0.3,0-0.4,0C15.5,48.5,15.4,48.5,15.4,48.5z"/>
	<path class="st0" d="M19.4,48.4l0.7-0.7v-4h-0.8l-0.9,0.9V43h4.7v1.6l-0.9-0.9h-0.8v4l0.7,0.7H19.4z"/>
	<path class="st0" d="M23.5,43h2.8l-0.7,0.7V47c0,0.2,0.1,0.4,0.3,0.6c0.2,0.2,0.4,0.3,0.7,0.3c0.3,0,0.5-0.1,0.7-0.3
		c0.2-0.2,0.3-0.4,0.3-0.6v-3.2L26.9,43h2.3l-0.7,0.7V47c0,0.5-0.2,0.9-0.6,1.2c-0.4,0.3-0.9,0.5-1.5,0.5c-0.6,0-1.1-0.1-1.5-0.4
		s-0.7-0.7-0.7-1.2v-3.2L23.5,43z"/>
	<path class="st0" d="M30.3,47.7v-4L29.5,43h2.9c0.8,0,1.5,0.3,2,0.8c0.5,0.5,0.8,1.2,0.8,1.9c0,0.7-0.3,1.4-0.8,1.9
		c-0.5,0.5-1.2,0.8-2,0.8h-2.9L30.3,47.7z M33.6,45.7c0-0.5-0.1-1-0.4-1.4c-0.2-0.4-0.6-0.6-1-0.6h-0.6v4h0.6c0.5,0,0.8-0.2,1-0.6
		C33.5,46.8,33.6,46.3,33.6,45.7z"/>
	<path class="st0" d="M38.7,43l-0.7,0.7v4l0.7,0.7h-2.8l0.7-0.7v-4L35.8,43H38.7z"/>
	<path class="st0" d="M44.8,45.7c0,0.8-0.3,1.4-0.8,2c-0.5,0.6-1.2,0.9-2,0.9s-1.5-0.3-2-0.9c-0.5-0.6-0.8-1.2-0.8-2
		c0-0.8,0.3-1.4,0.8-2c0.5-0.6,1.2-0.9,2-0.9c0.8,0,1.5,0.3,2,0.9C44.6,44.3,44.8,45,44.8,45.7z M42,43.6c-0.4,0-0.7,0.2-0.9,0.6
		s-0.3,0.9-0.3,1.5c0,0.6,0.1,1.1,0.3,1.5c0.2,0.4,0.5,0.6,0.9,0.6s0.7-0.2,0.9-0.6c0.2-0.4,0.3-0.9,0.3-1.5c0-0.6-0.1-1.1-0.3-1.5
		S42.5,43.6,42,43.6z"/>
	<path class="st0" d="M46.8,48.5l-1.5-0.2L46,47l0.8,0.8c0.1,0.1,0.3,0.1,0.5,0.1c0.2,0,0.4-0.1,0.6-0.2c0.2-0.1,0.3-0.3,0.3-0.5
		c0-0.1,0-0.2-0.1-0.3c-0.1-0.1-0.1-0.2-0.2-0.2l-1.4-0.8c-0.4-0.2-0.6-0.4-0.8-0.7c-0.1-0.3-0.2-0.5-0.2-0.7c0-0.4,0.2-0.7,0.5-1
		c0.3-0.3,0.8-0.4,1.4-0.4c0.1,0,0.2,0,0.3,0s0.2,0,0.3,0l1.4,0.2l-0.8,1.2l-0.7-0.7c-0.2-0.1-0.3-0.1-0.4-0.1
		c-0.2,0-0.4,0.1-0.5,0.2c-0.1,0.1-0.2,0.2-0.2,0.3s0,0.2,0.1,0.3s0.2,0.2,0.4,0.3l1.4,0.8c0.2,0.1,0.4,0.3,0.6,0.5
		c0.2,0.2,0.2,0.5,0.2,0.8c0,0.5-0.2,0.9-0.5,1.2c-0.3,0.3-0.9,0.5-1.6,0.5c-0.1,0-0.3,0-0.4,0C46.9,48.5,46.8,48.5,46.8,48.5z"/>

	<path class="st5" d="M28.9,39.9h-2.1l-1.6-3.2h-0.5v2.4l0.8,0.8h-3l0.8-0.8v-5.6l-0.8-0.8h2.7c0.7,0,1.3,0.2,1.9,0.5
		s0.8,0.8,0.8,1.4c0,0.4-0.1,0.8-0.4,1.1c-0.3,0.3-0.6,0.5-0.9,0.6l1.5,2.7L28.9,39.9z M24.7,35.9h0.5c0.3,0,0.6-0.1,0.8-0.4
		s0.3-0.5,0.3-0.9c0-0.3-0.1-0.6-0.3-0.8c-0.2-0.2-0.5-0.3-0.8-0.3h-0.5V35.9z"/>

	<path class="st2" d="M28.9,36.3c0-1,0.4-1.8,1.1-2.6c0.8-0.7,1.6-1.1,2.6-1.1c0.4,0,0.8,0,1.1,0.1c0.3,0.1,0.6,0.2,0.9,0.3v1.7
		l-1.1-1.1c-0.2-0.2-0.5-0.3-0.9-0.3c-0.6,0-1.1,0.3-1.5,0.9c-0.3,0.6-0.5,1.3-0.5,2.1c0,0.9,0.2,1.6,0.5,2.2s0.8,0.9,1.5,0.9
		c0.3,0,0.4-0.1,0.6-0.2c0.1-0.1,0.2-0.2,0.3-0.3v-2.2L32.6,36h2.9l-0.7,0.7v2.8c-0.4,0.2-0.7,0.3-1.1,0.4C33.4,40,33,40,32.6,40
		c-1,0-1.8-0.4-2.6-1.1S28.9,37.3,28.9,36.3z"/>

	<path class="st4" d="M36.5,39.1v-5.6l-0.8-0.8h2.7c0.7,0,1.3,0.2,1.8,0.5c0.5,0.3,0.8,0.8,0.8,1.5c0,0.3-0.1,0.6-0.4,0.9
		c-0.3,0.3-0.6,0.5-0.9,0.6c0.4,0.1,0.8,0.3,1.2,0.7s0.5,0.8,0.5,1.2c0,0.6-0.3,1.1-0.8,1.4c-0.5,0.3-1.1,0.4-1.9,0.4h-3L36.5,39.1z
		 M38,35.9h0.5c0.3,0,0.5-0.1,0.7-0.3c0.2-0.2,0.3-0.5,0.3-0.9c0-0.4-0.1-0.7-0.3-0.9c-0.2-0.2-0.4-0.3-0.7-0.3H38V35.9z M39.9,38
		c0-0.4-0.1-0.7-0.3-1c-0.2-0.3-0.5-0.4-0.8-0.4H38v2.5h0.8c0.3,0,0.6-0.1,0.8-0.3S39.9,38.4,39.9,38z"/>
</g>
</svg>